<svg width="90" height="90" viewBox="0 0 90 90" fill="none" xmlns="http://www.w3.org/2000/svg">
<circle cx="45" cy="45" r="45" fill="#215DB5"/>
<path d="M62.97 25.158C59.01 22.386 55.028 21 51.024 21C45.832 21 41.586 22.782 38.286 26.346C35.338 29.47 33.336 33.738 32.28 39.15H28.716L27 43.176H31.818C31.774 43.484 31.752 43.814 31.752 44.166C31.752 44.518 31.752 44.892 31.752 45.288C31.752 45.508 31.752 45.728 31.752 45.948C31.752 46.168 31.774 46.388 31.818 46.608H28.782L27 50.634H32.082C33.93 63.438 40.244 69.84 51.024 69.84C54.852 69.84 58.24 68.894 61.188 67.002V60.072C59.34 61.788 57.822 62.954 56.634 63.57C55.006 64.406 53.136 64.824 51.024 64.824C44.116 64.824 39.936 60.094 38.484 50.634H52.872L54.588 46.608H38.154C38.11 46.388 38.088 46.168 38.088 45.948C38.088 45.728 38.088 45.486 38.088 45.222C38.088 44.914 38.088 44.584 38.088 44.232C38.088 43.88 38.11 43.528 38.154 43.176H55.512L57.294 39.15H38.616C39.364 35.498 40.596 32.55 42.312 30.306C44.468 27.49 47.196 26.082 50.496 26.082C53.708 26.082 56.854 27.6 59.934 30.636L62.97 25.158Z" fill="#FFD400"/>
</svg>
