<svg width="29" height="16" viewBox="0 0 29 16" fill="none" xmlns="http://www.w3.org/2000/svg">
<rect width="29" height="16" rx="4" fill="#03AAC7" fill-opacity="0.14"/>
<path d="M4.73 11.5V4.7H5.9L8.75 9.14L9.18 9.94L9.15 4.7H10.27V11.5H9.1L6.26 7.08L5.82 6.25L5.85 11.5H4.73ZM16.082 9.76C15.792 11 14.872 11.63 13.622 11.63C12.052 11.63 11.092 10.58 11.092 8.84C11.092 7.03 12.052 6.03 13.572 6.03C15.112 6.03 16.042 7.07 16.042 8.78V9.04H12.182C12.242 10.13 12.752 10.74 13.622 10.74C14.302 10.74 14.782 10.42 14.962 9.76H16.082ZM13.572 6.92C12.802 6.92 12.342 7.41 12.212 8.31H14.932C14.802 7.41 14.332 6.92 13.572 6.92ZM21.3955 11.5L20.3355 7.71L20.2255 7.11L20.1055 7.71L19.0455 11.5H17.7255L16.1855 6.17H17.3355L18.3155 10.13L18.4455 10.73L18.5855 10.13L19.7055 6.17H20.8355L21.9655 10.13L22.0855 10.7L22.2055 10.13L23.1855 6.17H24.2855L22.7355 11.5H21.3955Z" fill="#03AAC7"/>
</svg>
