<svg width="90" height="90" viewBox="0 0 90 90" fill="none" xmlns="http://www.w3.org/2000/svg">
<circle cx="45" cy="45" r="45" fill="#1DA2B4"/>
<path fill-rule="evenodd" clip-rule="evenodd" d="M34.61 53.214H29C29.352 57.834 30.826 61.453 33.422 64.071C36.018 66.689 39.516 68.218 43.916 68.658V74.07H47.546V68.658C49.658 68.482 51.594 68.042 53.354 67.338C55.114 66.634 56.632 65.677 57.908 64.467C59.184 63.257 60.185 61.816 60.911 60.144C61.637 58.472 62 56.558 62 54.402C62 52.378 61.615 50.64 60.845 49.188C60.075 47.736 59.14 46.526 58.04 45.558C56.94 44.59 55.796 43.831 54.608 43.281C53.42 42.731 52.386 42.346 51.506 42.126L47.546 41.07V24.834C51.594 25.582 54.058 28.134 54.938 32.49H60.548C59.668 28.618 58.172 25.582 56.06 23.382C53.948 21.182 51.11 19.862 47.546 19.422V15H43.916V19.356C42.024 19.488 40.253 19.906 38.603 20.61C36.953 21.314 35.523 22.271 34.313 23.481C33.103 24.691 32.146 26.121 31.442 27.771C30.738 29.421 30.386 31.236 30.386 33.216C30.386 35.152 30.65 36.802 31.178 38.166C31.706 39.53 32.531 40.685 33.653 41.631C34.775 42.577 36.183 43.391 37.877 44.073C39.571 44.755 41.584 45.382 43.916 45.954V63.444C41.276 63.004 39.087 61.926 37.349 60.21C35.611 58.494 34.698 56.162 34.61 53.214ZM47.546 63.444V46.878C48.734 47.23 49.856 47.615 50.912 48.033C51.968 48.451 52.87 48.968 53.618 49.584C54.366 50.2 54.96 50.937 55.4 51.795C55.84 52.653 56.06 53.72 56.06 54.996C56.06 56.404 55.851 57.625 55.433 58.659C55.015 59.693 54.421 60.551 53.651 61.233C52.881 61.915 51.979 62.432 50.945 62.784C49.911 63.136 48.778 63.356 47.546 63.444ZM43.916 40.08V24.636C41.804 24.856 40.011 25.615 38.537 26.913C37.063 28.211 36.326 30.114 36.326 32.622C36.326 33.766 36.513 34.745 36.887 35.559C37.261 36.373 37.789 37.055 38.471 37.605C39.153 38.155 39.956 38.628 40.88 39.024C41.804 39.42 42.816 39.772 43.916 40.08Z" fill="white"/>
</svg>
